<svg id="eRh3MSgXQ9n1" xmlns="http://www.w3.org/2000/svg" xmlns:xlink="http://www.w3.org/1999/xlink" viewBox="0 0 569 438" shape-rendering="geometricPrecision" text-rendering="geometricPrecision"><path d="M6.385652,158.119846l329.884551-.802639L568.999999,437.999999h-194.203135l58.592633-36.680594q56.987354,0,57.789993,0t-169.35679-208.686091h-261.660254L6.385652,158.119846Z" transform="translate(.000008 0.000001)" fill="#526d82" stroke="#526d82" stroke-width="1.138"/><path d="M0,280.120946l60.162454-33.710831l261.660254-1.605278L491.179498,36.921383h-57.789993L374.796872,-0.000003L569,-0.000004L336.270211,280.120942L0,280.120946Z" transform="translate(0 0.000004)" fill="#27374d" stroke="#27374d" stroke-width="1.138"/><path d="M240.756185,438h-129.224849l-.802639-157.87905h61.803189l68.224299,64.211101v93.667949Z" fill="#526d82" stroke="#526d82" stroke-width="1.138"/><path d="M240.756185,0.000001v157.317207l-68.224299-.000001-61.803189-67.421662.802639-89.895546l129.224849.000002Z" transform="translate(0 0.000003)" fill="#27374d" stroke="#000" stroke-width="1.138"/></svg>
